<svg width="20" height="20" xmlns="http://www.w3.org/2000/svg">
    <g transform="translate(-.001)" fill="none" fill-rule="evenodd">
        <path d="M16.841 2A3.165 3.165 0 0 1 20 5.17v7.52c0 1.75-1.415 3.17-3.159 3.17h-4.713L10.52 18.48s-.014.03-.055.078a.541.541 0 0 1-.932-.004.587.587 0 0 1-.053-.074L7.872 15.86H3.159A3.164 3.164 0 0 1 0 12.69V5.17C0 3.42 1.414 2 3.159 2zm-1.235 5.526h-.055c-.296.008-1.677.136-1.677 1.877v.028c.006.23.107 1.788 1.684 1.788h.035c.145-.002.71-.038 1.04-.467v.286s.087.895-.78.895h-.295v1.085h.502c.22-.008 1.763-.12 1.763-1.913V7.65h-1.19v.342l-.006-.008a1.344 1.344 0 0 0-1.021-.458zM3.401 6.051H2.176v5.101h1.238v-.4c.043.073.344.527 1.028.527 0 0 1.725-.063 1.725-1.903 0 0-.063-1.866-1.725-1.866 0 0-.546 0-1.041.482V6.051zm7.784 1.475h-.03c-.248.01-1.993.135-1.993 1.89v.055c.01.31.151 1.808 2.023 1.808h.03c.256-.01 2.04-.135 2.04-1.863V9.39c0-.219-.075-1.865-2.07-1.865zm-4.624-1.59v1.18l.019.001c.098.007.54.09.54 1.015v3.02H8.3l-.001-3.36c-.01-.328-.14-1.855-1.738-1.855zM4.172 8.63a.787.787 0 1 1 0 1.574.787.787 0 0 1 0-1.574zm7.014 0a.787.787 0 1 1 0 1.574.787.787 0 0 1 0-1.574zm4.716 0a.787.787 0 1 1 0 1.574.787.787 0 0 1 0-1.574z" fill="#FFF"/>
        <rect width="20" height="20" rx="2"/>
    </g>
</svg>
