<svg width="20" height="20" xmlns="http://www.w3.org/2000/svg" xmlns:xlink="http://www.w3.org/1999/xlink">
    <defs>
        <path id="a" d="M0 0h14.222v17.54H0z"/>
    </defs>
    <g transform="translate(-.001)" fill="none" fill-rule="evenodd">
        <g transform="translate(3 1)">
            <mask id="b" fill="#fff">
                <use xlink:href="#a"/>
            </mask>
            <path d="M8.945 8.202a3.57 3.57 0 0 1-1.739.426H4.27V3.954h3.083c.144 0 .702.015 1.194.161.722.226 1.643.766 1.643 2.063 0 1.066-.622 1.678-1.244 2.024M8.217.024A5.954 5.954 0 0 0 7.7 0H2.014C.902 0 0 .885 0 1.977l.003.06c0 .019-.003.038-.003.058v13.28c0 1.115.858 2.09 1.992 2.161 1.243.08 2.277-.887 2.277-2.09v-2.864h3.2s.51-.015 1.107-.104a9.268 9.268 0 0 0 1.071-.252c.086-.03.173-.057.259-.081 1.892-.627 4.316-2.15 4.316-5.843 0-5.254-4.707-6.137-6.005-6.278" fill="#FFF" mask="url(#b)"/>
        </g>
        <rect width="20" height="20" rx="2"/>
    </g>
</svg>
