<svg width="20" height="20" xmlns="http://www.w3.org/2000/svg" xmlns:xlink="http://www.w3.org/1999/xlink">
    <defs>
        <path id="a" d="M0 0h15.072v17.7H0z"/>
    </defs>
    <g transform="translate(-.001)" fill="none" fill-rule="evenodd">
        <g transform="translate(3 1)">
            <mask id="b" fill="#fff">
                <use xlink:href="#a"/>
            </mask>
            <path d="m4.753 6.644 3.53 2.206-3.53 2.206V6.644zm9.202.146L3.668.36a2.376 2.376 0 0 0-3.242.707A2.365 2.365 0 0 0 0 2.425v12.898a2.376 2.376 0 0 0 2.317 2.375l.03.001h.04c.438.005.882-.111 1.28-.36l10.288-6.428a2.375 2.375 0 0 0 1.117-2.061 2.375 2.375 0 0 0-1.117-2.06z" fill="#FFF" mask="url(#b)"/>
        </g>
        <rect width="20" height="20" rx="2"/>
    </g>
</svg>
