<svg width="114" height="36" xmlns="http://www.w3.org/2000/svg" xmlns:xlink="http://www.w3.org/1999/xlink">
    <defs>
        <path id="a" d="M0 0h15.212v16.576H0z"/>
        <path id="c" d="M0 0h15.238v16.576H0z"/>
        <path id="e" d="M0 0h15.236v16.576H0z"/>
        <path id="g" d="M0 0h15.229v16.576H0z"/>
        <path id="i" d="M0 0h17.714v16.576H0z"/>
        <path id="k" d="M0 35.812h113.694V0H0z"/>
    </defs>
    <g fill="none" fill-rule="evenodd">
        <path fill="#FFF" d="M11.368 0v6.636H3.632V0H0v17h3.632V9.96h7.736V17H15V0z"/>
        <g transform="translate(0 .188)">
            <g transform="translate(90.852)">
                <mask id="b" fill="#fff">
                    <use xlink:href="#a"/>
                </mask>
                <path d="M4.625 3.238h6.887V8.05H3.685V4.184c.013-.19-.024-.535.141-.74.174-.214.452-.197.799-.206M.825.944C.05 1.724.021 2.861 0 3.525v13.051h3.685v-5.29h7.827v5.29h3.7V0H3.711C2.619.008 1.593.165.825.944" fill="#FFF" mask="url(#b)"/>
            </g>
            <g transform="translate(54.055)">
                <mask id="d" fill="#fff">
                    <use xlink:href="#c"/>
                </mask>
                <path d="M11.524 0H0v16.576h3.692V3.238h6.917c.345.01.625-.008.797.207.166.204.134.549.144.74v12.391h3.688V3.526c-.02-.665-.05-1.802-.82-2.582C13.642.165 12.621.008 11.523 0" fill="#FFF" mask="url(#d)"/>
            </g>
            <g transform="translate(35.555)">
                <mask id="f" fill="#fff">
                    <use xlink:href="#e"/>
                </mask>
                <path d="M11.548 12.388c-.014.195.02.532-.143.739-.174.216-.454.198-.797.207H3.692V0H0v16.576h11.522c1.096-.009 2.118-.17 2.89-.948.773-.78.803-1.916.824-2.582V0h-3.688v12.388z" fill="#FFF" mask="url(#f)"/>
            </g>
            <g transform="translate(72.563)">
                <mask id="h" fill="#fff">
                    <use xlink:href="#g"/>
                </mask>
                <path d="M11.556 12.388c-.015.195.018.532-.143.739-.172.216-.456.198-.8.207H3.689V3.238h6.926c.343.01.627-.008.8.207.16.204.127.549.142.739v8.204zm3.673-8.863c-.017-.664-.05-1.801-.818-2.58-.774-.78-1.795-.937-2.89-.945H0v16.576h11.521c1.095-.009 2.116-.17 2.89-.948.768-.78.801-1.916.818-2.582V3.525z" fill="#FFF" mask="url(#h)"/>
            </g>
            <g transform="translate(16.54)">
                <mask id="j" fill="#fff">
                    <use xlink:href="#i"/>
                </mask>
                <path fill="#FFF" mask="url(#j)" d="M8.86 7.251 4.382 0H0l6.888 10.45v6.126h3.94V10.45L17.714 0H13.33z"/>
            </g>
            <mask id="l" fill="#fff">
                <use xlink:href="#k"/>
            </mask>
            <path fill="#FFF" mask="url(#l)" d="M109.76 16.576h3.934V0h-3.933zM0 23.41h113.694v-2.498H0zM73.64 31.406c-.005.08-.016.163-.063.224-.081.1-.212.094-.37.094h-3.28v-2.018h3.28c.158.002.289-.005.37.096.047.06.058.147.064.223v1.381zm.292 1.905c.36-.04.689-.146.955-.417.359-.361.375-.886.382-1.194v-1.969c-.007-.308-.023-.833-.382-1.195-.356-.359-.829-.433-1.336-.439h-5.354v7.715h1.73v-2.48h2.19l1.686 2.48h1.826l-1.697-2.501zM52.693 31.406c-.007.08-.017.163-.064.224-.08.1-.212.094-.369.094h-3.283v-2.018h3.283c.157.002.29-.005.369.096.047.06.057.147.064.223v1.381zm.289 1.905c.363-.04.692-.146.957-.417.36-.361.375-.886.382-1.194v-1.969c-.007-.308-.023-.833-.382-1.195-.355-.359-.829-.433-1.337-.439h-5.354v7.715h1.73v-2.48h2.19l1.685 2.48h1.826l-1.697-2.501zM30.587 28.098v1.69h2.675v6.024h1.717V29.79h2.678v-1.691zM12.708 28.098v7.714h1.714v-4.88l1.676 4.88h1.515l1.677-4.88v4.88h1.714v-7.714H18.73l-1.874 5.433-1.876-5.433zM99.353 31.675c-.002.076-.01.162-.058.223-.082.1-.214.096-.372.096H95.64v-2.29h3.283c.158.004.29-.002.372.099.047.06.056.145.058.22v1.652zm-5.424 4.137h1.711v-2.21h3.627c.508-.003.982-.078 1.335-.437.36-.366.377-.889.386-1.194v-2.239c-.01-.309-.027-.833-.386-1.194-.353-.36-.827-.435-1.335-.44h-5.338v7.714zM61.393 29.882c.078-.098.207-.092.366-.097h4.927v-1.687h-5.353c-.507.006-.98.08-1.338.44-.359.361-.373.886-.38 1.193v4.45c.007.307.021.832.38 1.193.357.359.831.436 1.338.438h3.636c.507-.002.978-.079 1.337-.438.357-.361.373-.886.38-1.193v-2.99h-3.694v1.506h1.98v1.107c-.003.079-.013.165-.062.224-.08.1-.21.093-.37.095H61.76c-.159-.002-.288.004-.366-.097-.049-.057-.06-.143-.062-.222v-3.699c.002-.076.013-.162.062-.223M90.71 33.869c-.006.09.012.247-.063.343-.083.1-.214.093-.374.096h-3.21v-6.21h-1.712v7.714h5.35c.507-.002.981-.078 1.342-.437.358-.364.373-.892.38-1.199v-6.079H90.71v5.772zM82.175 33.804c-.002.079-.011.165-.06.223-.08.1-.21.094-.37.096h-2.78c-.158-.002-.291.004-.366-.096-.051-.058-.063-.144-.066-.223v-3.699c.003-.077.015-.162.066-.221.075-.1.208-.093.366-.099h2.78c.16.006.29 0 .37.099.049.06.058.144.06.221v3.7zm1.333-5.267c-.354-.359-.827-.434-1.335-.44h-3.637c-.505.006-.977.081-1.335.44-.358.363-.371.886-.383 1.195v4.449c.012.307.025.831.383 1.193.358.36.83.436 1.335.438h3.637c.508-.002.98-.079 1.335-.438.361-.362.377-.886.384-1.193v-4.449c-.007-.309-.023-.832-.384-1.195zM44.062 33.804c-.004.079-.013.165-.06.223-.08.1-.212.094-.37.096H40.85c-.158-.002-.29.004-.366-.096-.05-.058-.062-.144-.065-.223v-3.699c.003-.077.015-.162.065-.221.077-.1.208-.093.366-.099h2.781c.16.006.29 0 .371.099.047.06.056.144.06.221v3.7zm1.333-5.267c-.355-.359-.83-.434-1.337-.44h-3.636c-.505.006-.978.081-1.337.44-.358.363-.372.886-.381 1.195v4.449c.01.307.023.831.381 1.193.359.36.832.436 1.337.438h3.636c.507-.002.982-.079 1.337-.438.359-.362.376-.886.381-1.193v-4.449c-.005-.309-.022-.832-.381-1.195zM27.822 33.804c-.004.079-.014.165-.063.223-.076.1-.208.094-.367.096h-2.783c-.158-.002-.287.004-.366-.096-.049-.058-.06-.144-.063-.223v-3.699c.003-.077.014-.162.063-.221.079-.1.208-.093.366-.099h2.783c.16.006.29 0 .367.099.05.06.059.144.063.221v3.7zm1.332-5.267c-.353-.359-.828-.434-1.336-.44h-3.635c-.506.006-.979.081-1.337.44-.359.363-.372.886-.384 1.195v4.449c.012.307.025.831.384 1.193.358.36.831.436 1.337.438h3.635c.508-.002.983-.079 1.336-.438.361-.362.376-.886.383-1.193v-4.449c-.007-.309-.022-.832-.383-1.195z"/>
        </g>
    </g>
</svg>
