<svg xmlns="http://www.w3.org/2000/svg" width="30" height="30" viewBox="0 0 30 30">
    <g fill="none" fill-rule="evenodd">
        <g>
            <g>
                <g>
                    <path d="M0 0H30V30H0z" transform="translate(-487.000000, -327.000000) translate(467.000000, 317.000000) translate(20.000000, 10.000000)"/>
                    <path fill="#FFF" d="M15.5 10H14v6l5.2 3.2.8-1.3-4.5-2.7V10zM15 23c-4.41 0-8-3.59-8-8s3.59-8 8-8 8 3.59 8 8-3.59 8-8 8zm0-18C9.5 5 5 9.5 5 15s4.5 10 10 10 10-4.5 10-10S20.5 5 15 5z" transform="translate(-487.000000, -327.000000) translate(467.000000, 317.000000) translate(20.000000, 10.000000)"/>
                </g>
            </g>
        </g>
    </g>
</svg>
